<?xml version="1.0" encoding="utf-8"?>
<!-- Generator: Adobe Illustrator 17.1.0, SVG Export Plug-In . SVG Version: 6.00 Build 0)  -->
<!DOCTYPE svg PUBLIC "-//W3C//DTD SVG 1.0//EN" "http://www.w3.org/TR/2001/REC-SVG-20010904/DTD/svg10.dtd">
<svg version="1.0" xmlns="http://www.w3.org/2000/svg" xmlns:xlink="http://www.w3.org/1999/xlink" x="0px" y="0px"
	 viewBox="0 0 339.8 56.5" enable-background="new 0 0 339.8 56.5" xml:space="preserve">
<g id="Black">
	<g>
		<polygon points="0,50.1 0,51.9 145.4,51.9 146,50.1 		"/>
		<polygon points="323.9,50.1 323.9,51.9 178.5,51.9 177.9,50.1 		"/>
		<path d="M0.2,10.6H24l0.2,7.1h-1c-0.5-2.2-1.1-3.7-1.9-4.4c-0.8-0.7-2.4-1-4.8-1h-2.3v21.5c0,1.6,0.3,2.6,0.8,3
			c0.5,0.4,1.6,0.6,3.3,0.8v0.8H6.1v-0.8c1.8-0.1,2.9-0.4,3.3-0.9c0.4-0.4,0.7-1.6,0.7-3.4v-21H7.7c-2.3,0-3.9,0.3-4.7,1
			C2.1,14,1.5,15.5,1,17.7H0L0.2,10.6z"/>
		<path d="M26.9,37.6c1.5-0.2,2.5-0.4,3-0.8c0.5-0.4,0.7-1.4,0.7-2.9V15.1c0-1.5-0.2-2.5-0.7-2.9c-0.5-0.5-1.5-0.7-3-0.9v-0.8h22.3
			l0.1,6h-1.1c-0.4-1.9-0.9-3-1.6-3.6c-0.7-0.5-2.3-0.8-4.8-0.8h-5.7c-0.6,0-1,0.1-1.1,0.3c-0.1,0.2-0.2,0.6-0.2,1.1V23h6.5
			c1.8,0,2.9-0.3,3.4-0.8c0.5-0.5,0.9-1.6,1.2-3.2h1v9.7h-1c-0.3-1.6-0.7-2.7-1.2-3.2c-0.5-0.5-1.6-0.8-3.4-0.8h-6.5V35
			c0,0.8,0.3,1.3,0.8,1.5c0.5,0.2,2.1,0.2,4.7,0.2c2.8,0,5-0.3,6.3-0.9c1.4-0.6,2.6-2.1,3.7-4.5h1.2l-1.9,7.1H26.9V37.6z"/>
		<path d="M52.4,37.6c1.1-0.1,2-0.4,2.6-0.9c0.6-0.5,1.7-1.8,3.5-3.9l6.5-8L60.4,18c-2-2.9-3.4-4.8-4.2-5.5
			c-0.8-0.7-1.9-1.1-3.3-1.2v-0.8h12.6v0.8c-1.2,0-2,0.1-2.4,0.2c-0.6,0.2-0.8,0.6-0.8,1.2c0,0.4,0.1,0.8,0.4,1.4
			c0.1,0.3,0.3,0.6,0.6,0.9l4.3,6.3l4.7-5.7c0.7-0.8,1.2-1.5,1.4-2c0.1-0.3,0.2-0.6,0.2-0.8c0-0.6-0.3-1-0.9-1.2
			c-0.4-0.1-1-0.2-2-0.2v-0.8h10v0.8c-1.1,0-2,0.2-2.6,0.5c-1,0.5-2.2,1.7-3.6,3.5L68.7,23l8,11.5c0.9,1.2,1.6,2,2.1,2.4
			c0.6,0.3,1.4,0.6,2.5,0.7v0.8H69v-0.8c1.2,0,2-0.1,2.5-0.3c0.5-0.2,0.7-0.5,0.7-1c0-0.4-0.3-1.2-0.9-2.2c-0.6-1-2.3-3.6-5.2-7.7
			l-4.9,6.2c-0.7,0.9-1.2,1.6-1.5,2c-0.4,0.7-0.7,1.2-0.7,1.5c0,0.6,0.4,1,1.1,1.3c0.4,0.2,1.1,0.3,2.1,0.3v0.8h-9.7V37.6z"/>
		<path d="M80.8,38.4v-0.8c1.1-0.1,1.9-0.5,2.4-1.2c0.5-0.7,1.5-2.6,2.8-5.7l8.8-20.6h0.8l10.5,23.8c0.7,1.6,1.3,2.6,1.7,2.9
			c0.4,0.4,1.1,0.6,2.1,0.8v0.8H99.1v-0.8c1.2-0.1,2-0.2,2.4-0.4c0.4-0.2,0.5-0.5,0.5-1.2c0-0.2-0.1-0.6-0.2-1.1
			c-0.1-0.5-0.3-1.1-0.6-1.6l-1.7-4H88.5c-1.1,2.7-1.7,4.4-2,5c-0.2,0.6-0.3,1.1-0.3,1.4c0,0.7,0.3,1.2,0.9,1.5c0.4,0.2,1,0.3,2,0.4
			v0.8H80.8z M98.9,27.6L94.1,16l-4.8,11.6H98.9z"/>
		<path d="M112.2,29.9c0.7,1.9,1.5,3.4,2.5,4.5c1.7,2,3.7,2.9,6.2,2.9c1.3,0,2.5-0.4,3.5-1.3c1-0.8,1.5-2,1.5-3.6
			c0-1.4-0.5-2.6-1.5-3.6c-0.6-0.6-2-1.6-4.1-2.9l-3.6-2.2c-1.1-0.7-1.9-1.4-2.6-2.1c-1.2-1.3-1.8-2.8-1.8-4.4
			c0-2.1,0.7-3.9,2.1-5.3c1.4-1.4,3.3-2.1,5.6-2.1c1,0,2.1,0.2,3.5,0.7c1.3,0.5,2.1,0.7,2.3,0.7c0.5,0,0.9-0.1,1.1-0.4
			c0.2-0.2,0.4-0.6,0.5-1h0.9l0.9,8.9h-1c-0.7-2.7-1.8-4.6-3.3-5.6c-1.5-1.1-3-1.6-4.5-1.6c-1.1,0-2.2,0.3-3,1
			c-0.9,0.7-1.3,1.6-1.3,2.8c0,1.1,0.3,2,1,2.8c0.7,0.8,1.7,1.6,3.1,2.4l3.7,2.3c2.3,1.4,3.9,2.7,4.9,3.9c0.9,1.2,1.4,2.6,1.4,4.3
			c0,2.2-0.8,4-2.5,5.5c-1.7,1.5-3.8,2.2-6.4,2.2c-1.3,0-2.7-0.2-4.1-0.7c-1.4-0.5-2.2-0.7-2.4-0.7c-0.5,0-0.8,0.2-1,0.5
			c-0.2,0.3-0.3,0.6-0.3,1h-0.9l-1.3-8.9H112.2z"/>
		<path d="M196.1,29.9c0.7,1.9,1.5,3.4,2.5,4.5c1.7,2,3.7,2.9,6.2,2.9c1.3,0,2.5-0.4,3.5-1.3c1-0.8,1.5-2,1.5-3.6
			c0-1.4-0.5-2.6-1.5-3.6c-0.6-0.6-2-1.6-4.1-2.9l-3.6-2.2c-1.1-0.7-1.9-1.4-2.6-2.1c-1.2-1.3-1.8-2.8-1.8-4.4
			c0-2.1,0.7-3.9,2.1-5.3c1.4-1.4,3.3-2.1,5.6-2.1c1,0,2.1,0.2,3.5,0.7c1.3,0.5,2.1,0.7,2.3,0.7c0.5,0,0.9-0.1,1.1-0.4
			c0.2-0.2,0.4-0.6,0.5-1h0.9l0.9,8.9h-1c-0.7-2.7-1.8-4.6-3.3-5.6c-1.5-1.1-3-1.6-4.5-1.6c-1.1,0-2.2,0.3-3,1
			c-0.9,0.7-1.3,1.6-1.3,2.8c0,1.1,0.3,2,1,2.8c0.7,0.8,1.7,1.6,3.1,2.4l3.7,2.3c2.3,1.4,3.9,2.7,4.9,3.9c0.9,1.2,1.4,2.6,1.4,4.3
			c0,2.2-0.8,4-2.5,5.5c-1.7,1.5-3.8,2.2-6.4,2.2c-1.3,0-2.7-0.2-4.1-0.7c-1.4-0.5-2.2-0.7-2.4-0.7c-0.5,0-0.8,0.2-1,0.5
			c-0.2,0.3-0.3,0.6-0.3,1h-0.9l-1.3-8.9H196.1z"/>
		<path d="M218.1,10.6h23.8l0.2,7.1h-1c-0.5-2.2-1.1-3.7-1.9-4.4c-0.8-0.7-2.4-1-4.8-1h-2.3v21.5c0,1.6,0.3,2.6,0.8,3
			c0.5,0.4,1.6,0.6,3.3,0.8v0.8h-12.2v-0.8c1.8-0.1,2.9-0.4,3.3-0.9c0.4-0.4,0.7-1.6,0.7-3.4v-21h-2.4c-2.3,0-3.9,0.3-4.8,1
			c-0.8,0.7-1.5,2.1-1.9,4.4h-1L218.1,10.6z"/>
		<path d="M242.5,38.4v-0.8c1.1-0.1,1.9-0.5,2.4-1.2c0.5-0.7,1.5-2.6,2.8-5.7l8.8-20.6h0.8l10.5,23.8c0.7,1.6,1.3,2.6,1.7,2.9
			c0.4,0.4,1.1,0.6,2.1,0.8v0.8h-10.7v-0.8c1.2-0.1,2-0.2,2.4-0.4c0.4-0.2,0.5-0.5,0.5-1.2c0-0.2-0.1-0.6-0.2-1.1
			c-0.1-0.5-0.3-1.1-0.6-1.6l-1.7-4h-11.1c-1.1,2.7-1.7,4.4-2,5c-0.2,0.6-0.3,1.1-0.3,1.4c0,0.7,0.3,1.2,0.9,1.5
			c0.4,0.2,1,0.3,2,0.4v0.8H242.5z M260.6,27.6L255.7,16l-4.8,11.6H260.6z"/>
		<path d="M272,10.6h23.8l0.2,7.1h-1c-0.5-2.2-1.1-3.7-1.9-4.4c-0.8-0.7-2.4-1-4.8-1h-2.3v21.5c0,1.6,0.3,2.6,0.8,3
			c0.5,0.4,1.6,0.6,3.3,0.8v0.8h-12.2v-0.8c1.8-0.1,2.9-0.4,3.3-0.9c0.4-0.4,0.7-1.6,0.7-3.4v-21h-2.4c-2.3,0-3.9,0.3-4.7,1
			c-0.8,0.7-1.5,2.1-1.9,4.4h-1L272,10.6z"/>
		<path d="M299.2,37.6c1.5-0.2,2.5-0.4,3-0.8c0.5-0.4,0.7-1.4,0.7-2.9V15.1c0-1.5-0.2-2.5-0.7-2.9c-0.5-0.5-1.5-0.7-3-0.9v-0.8h22.3
			l0.1,6h-1.1c-0.4-1.9-0.9-3-1.6-3.6c-0.7-0.5-2.3-0.8-4.8-0.8h-5.7c-0.6,0-1,0.1-1.1,0.3c-0.1,0.2-0.2,0.6-0.2,1.1V23h6.5
			c1.8,0,2.9-0.3,3.4-0.8c0.5-0.5,0.9-1.6,1.2-3.2h1v9.7h-1c-0.3-1.6-0.7-2.7-1.2-3.2c-0.5-0.5-1.6-0.8-3.4-0.8h-6.5V35
			c0,0.8,0.3,1.3,0.8,1.5c0.5,0.2,2.1,0.2,4.7,0.2c2.8,0,5-0.3,6.3-0.9c1.4-0.6,2.6-2.1,3.7-4.5h1.2l-1.9,7.1h-22.7V37.6z"/>
		<g>
			<path d="M339.8,51c0,2.6-2.1,4.7-4.7,4.7c-2.6,0-4.7-2.1-4.7-4.7c0-2.6,2.1-4.7,4.7-4.7C337.7,46.3,339.8,48.4,339.8,51z
				 M331.2,51c0,2.1,1.7,3.9,3.9,3.9c2.2,0,3.9-1.8,3.9-3.9c0-2.2-1.8-3.9-3.9-3.9C333,47.1,331.2,48.8,331.2,51z M332.9,48.4h2.4
				c0.9,0,2,0,2,1.4c0,0.5-0.2,1.1-1.3,1.2v0c1,0,1,0.5,1.1,1c0.2,1.2,0.2,1.2,0.3,1.5h-1.6c-0.1-0.3-0.1-0.7-0.2-1.2
				c-0.1-0.6-0.1-0.8-0.7-0.8h-0.6v2h-1.5V48.4z M334.4,50.7h0.5c0.5,0,1,0,1-0.6c0-0.6-0.5-0.6-1-0.6h-0.5V50.7z"/>
		</g>
	</g>
</g>
<g id="_x38_72">
	<polygon fill="#AC9055" points="189.4,22.3 168.5,22.3 168.4,22.3 162,2.4 155.5,22.3 155.4,22.3 134.5,22.3 151.5,34.7 
		151.4,34.7 145,54.6 145,54.6 162,42.3 178.9,54.6 178.9,54.6 172.5,34.7 172.5,34.7 189.3,22.4 	"/>
</g>
<g id="_x35_04">
	<path fill="#571C1F" d="M169.1,21.8L169.1,21.8L162,0l-7.1,21.8h0H132l18.5,13.5L143.4,57L162,43.6L180.4,57l0,0l0.1,0.1l-7.1-21.7
		l0-0.1l18.4-13.4l0,0l0.1-0.1H169.1z M171.6,34.6l-9.6-3.1l15.5,21.3L162,41.6V31.6l-15.5,21.3l5.9-18.3l9.6-3.1l0,0l-25.1-8.2H156
		l5.9,8.2V5.1l5.9,18.3l-5.9,8.2l25.1-8.2L171.6,34.6z"/>
</g>
</svg>
