<svg xmlns:inkscape="http://www.inkscape.org/namespaces/inkscape" xmlns:svg="http://www.w3.org/2000/svg" xmlns:rdf="http://www.w3.org/1999/02/22-rdf-syntax-ns#" xmlns:dc="http://purl.org/dc/elements/1.1/" xmlns:cc="http://creativecommons.org/ns#" xmlns="http://www.w3.org/2000/svg" xmlns:xlink="http://www.w3.org/1999/xlink" version="1.0" x="0px" y="0px" viewBox="-10.1 0 445 171.1" enable-background="new -10.1 0 445 171.1" xml:space="preserve"><style>.style0{fill:	#FFFFFF;}</style><g transform="matrix(1.25,0,0,-1.25,0,171.1125)"><g transform="scale(0.1,0.1)"><g><g><g><path inkscape:connector-curvature="0" d="M72 867.1v-17.4h1454.3l5.7 17.4H72" class="style0"/><path inkscape:connector-curvature="0" d="M3311.2 867.1v-17.4H1856.8l-5.7 17.4H3311.2" class="style0"/><path inkscape:connector-curvature="0" d="M3415.5 861.6h8.2c6.7 0 7.9 4.7 7.9 7.4 c0 7.2-5 7.2-7.7 7.2h-8.4C3415.5 876.2 3415.5 861.6 3415.5 861.6z M3405.5 884.7h18.1c6.2 0 18.4 0 18.4-13.9 c0-9.7-6.2-11.6-9.9-12.9c7.2-0.5 7.7-5.2 8.7-11.9c0.5-4.2 1.2-11.4 2.7-13.9h-11.2c-0.3 2.5-2 15.9-2 16.6 c-0.7 3-1.7 4.5-5.5 4.5h-9.2V832h-10.1L3405.5 884.7L3405.5 884.7z M3383.8 858.5c0-21.8 17.6-39.5 39.2-39.5 c21.8 0 39.5 18 39.5 39.5c0 21.8-17.9 39.2-39.5 39.2C3401.7 897.7 3383.8 880.6 3383.8 858.5z M3470.1 858.3 c0-25.8-21.1-46.9-46.9-46.9c-25.6 0-46.9 20.8-46.9 46.9c0 26.6 21.8 46.9 46.9 46.9C3448.5 905.2 3470.1 884.9 3470.1 858.3" class="style0"/><path inkscape:connector-curvature="0" d="M504.2 51.6c6.9 0.5 11.7 1.5 14.5 2.9 c4.7 2.5 7.9 7.2 9.8 14.1L562.4 191c-17.7 0-29.4-1.3-35.1-4c-5.7-2.7-12.3-10.8-19.9-24.4l-4.1 0.8l9.5 35.7h123.4L626 161.4 l-4.1 0.5l0.6 8c0 7.1-1.6 12.4-4.8 15.9c-3.2 3.5-9.6 5.3-19.1 5.3h-12.9L553.2 75.7c-0.7-2.5-1.3-4.7-1.7-6.7 c-0.7-2.9-1-5.3-1-7c0-4.5 1.4-7.3 4.2-8.4c2.8-1.1 8.2-1.7 16.4-1.9V48h-66.8L504.2 51.6" class="style0"/><path inkscape:connector-curvature="0" d="M646.3 199.6c4.9 0.7 8.8 1.2 11.8 1.6 c3 0.4 5.6 0.8 7.8 1.2c9 1.7 13.8 2.7 14.5 2.8c0.7 0.2 1.2 0.2 1.6 0.2c0.9-0.4 1.4-1.1 1.4-1.8l-28-100.8 c9.4 13.9 17 24.1 22.9 30.5c10.4 11.1 19.9 16.7 28.6 16.7c3.6 0 7-1.1 10.3-3.4c3.3-2.3 5-6.5 5-12.4c0-1.4-0.2-3.3-0.6-5.5 s-0.8-4.2-1.4-6l-14.9-53.9c-0.4-1.5-0.8-2.9-1.1-4.3c-0.3-1.4-0.4-2.6-0.4-3.8c0-1.3 0.3-2.2 0.9-2.9c0.6-0.7 1.5-1 2.6-1 c2.4 0 5.1 1.6 8.3 4.9c2 2 5.7 6.5 11 13.3l3-2.7c-5.3-7.8-9.9-13.6-13.6-17.2c-6.6-6.4-13.3-9.6-20-9.6 c-3.1 0-5.6 0.9-7.6 2.8c-2.1 1.9-3.1 4.6-3.1 8.2c0 0.9 0 1.9 0.2 2.7c0.1 0.9 0.3 1.8 0.6 2.9l17.2 66 c0.2 0.6 0.3 1.2 0.4 1.8c0.1 0.6 0.2 1.3 0.2 1.9c0 1.9-0.6 3.3-1.7 4.4c-1.2 1-2.7 1.6-4.6 1.6c-5 0-11.3-4-19-12.1 c-7.6-8.1-14-16.3-19.3-24.7c-3.6-5.9-6.3-11.5-8.1-16.8c-1.8-5.2-5.4-17.3-10.6-36.2H623L661 185.1c0.2 1 0.4 1.8 0.5 2.5 c0.1 0.7 0.1 1.4 0.1 1.9c0 3.3-1 5.3-3.2 5.9c-2.1 0.6-6.1 0.8-12.1 0.5L646.3 199.6" class="style0"/><path inkscape:connector-curvature="0" d="M801 111.4c9 8 13.6 15.9 13.6 23.8c0 2.8-0.7 5.1-2 6.8 c-1.3 1.7-3.3 2.5-6 2.5c-4.9 0-9.7-2.1-14.4-6.2c-4.7-4.2-9-8.9-12.7-14.2c-4-6.2-7.2-12-9.5-17.7c-1.3-3-2.6-6.4-4.1-10.2 C780.2 98.3 791.9 103.4 801 111.4z M764.4 126.5c14.9 15.6 30.3 23.5 46.2 23.5c5.9 0 10.6-1.4 14-4.1 c3.5-2.7 5.2-6.7 5.2-12.1c0-10.8-6.3-20.1-19.1-27.8c-12.7-7.7-26-12.4-40-14.1l-6.5-0.8c-1-3.1-1.6-5.5-2-7.4 c-0.4-1.9-0.6-4.1-0.6-6.9c0-6.5 2.2-11.7 6.5-15.4c4.3-3.7 9.5-5.5 15.4-5.5c5.7 0 11.6 1.9 18 5.6c3.6 2.2 8.9 6.1 15.7 11.7 l3-2.6c-3.4-4.3-8.3-8.7-14.6-13.2c-11.2-8.1-22.5-12.1-33.8-12.1c-8 0-15 2.8-21 8.4c-6.1 5.6-9.1 13.7-9.1 24.2 C741.8 94.8 749.3 110.9 764.4 126.5" class="style0"/><path inkscape:connector-curvature="0" d="M944 150.1c0.3-0.3 0.4-0.8 0.4-1.3 c-0.1-0.8-0.3-1.4-0.4-1.8l-11.3-43.7l2.3 4.9c5.4 10.6 11.7 20.3 19 29.1c7.2 8.8 14.1 13.2 20.6 13.2c3.5 0 6.3-1.2 8.2-3.5 c1.9-2.3 2.8-5 2.8-8c0-3.4-0.9-6.2-2.8-8.4c-1.9-2.2-4.5-3.3-7.8-3.3c-2.3 0-4 0.5-5.2 1.4c-1.2 0.9-2.1 1.9-2.8 3.2l-1.3 2.5 c-0.3 0.4-0.7 0.8-1.1 1.1c-0.4 0.3-0.9 0.4-1.5 0.4c-3 0-7.2-4.1-12.7-12.3c-5.5-8.2-10.5-17.2-14.9-26.7 c-2.6-5.8-5.6-13.6-8.8-23.1c-2.1-6-4.8-14.5-8.2-25.6H901l18.9 68.2c1 3.9 1.9 7.4 2.5 10.5c0.6 3.1 1 5.6 1 7.6 c0 2.2-0.6 4-1.7 5.2c-1.1 1.1-3.1 1.8-5.9 1.8c-0.9 0-2.1-0.1-3.4-0.2c-1.4-0.2-3-0.4-4.9-0.6v3.6l4.6 0.9 c5.9 1.2 12.4 2.5 19.4 3.8c7 1.3 10.7 2 11.1 2C943.3 150.8 943.7 150.5 944 150.1" class="style0"/><path inkscape:connector-curvature="0" d="M1026.5 178.6c-2.2 2.4-3.3 5.4-3.3 8.7 c0 3.5 1.1 6.5 3.3 8.9c2.2 2.4 4.8 3.6 7.9 3.6c3.1 0 5.7-1.2 7.9-3.6c2.2-2.4 3.3-5.4 3.3-8.9c0-3.5-1.1-6.4-3.3-8.8 c-2.2-2.4-4.9-3.5-7.9-3.5C1031.3 175.1 1028.7 176.2 1026.5 178.6z M1037.3 150.4c0.4-0.3 0.6-0.6 0.5-1l-22.6-80.6 c-1.1-4.3-1.6-6.9-1.6-7.7c0-1.1 0.2-2.1 0.7-3c0.4-0.9 1.3-1.4 2.9-1.4c2.6 0 6 2.2 10.2 6.7c2.5 2.7 5.6 6.4 9.2 11.3l3-2.5 l-1.1-1.6c-5.7-8-10.4-13.6-14.1-17.1c-5.9-5.4-11.5-8.1-17-8.1c-3.3 0-6 1.4-8.1 4.1c-2.1 2.6-3.2 5.9-3.2 9.6 c0 2.2 0.1 4.1 0.4 5.7c0.3 1.6 0.9 4 1.7 7.2l16.1 58.2c0.2 0.9 0.4 1.7 0.6 2.5c0.1 0.8 0.2 1.5 0.2 2.2c0 2.7-1 4.4-3 5 c-2 0.7-6 1-11.9 1v3.6c6.2 0.7 10.6 1.3 13.4 1.7c2.7 0.4 5.5 0.9 8.2 1.3c3.6 0.6 7 1.3 10.2 2.1 C1035.1 150.4 1036.9 150.6 1037.3 150.4" class="style0"/><path inkscape:connector-curvature="0" d="M1057.3 81.8h3.8c1.7-9.3 3.6-16.1 5.9-20.4 c4.2-7.8 10.4-11.8 18.6-11.8c4.6 0 8.5 1.6 11.7 4.8c3.2 3.3 4.7 7.5 4.7 12.9c0 3.4-0.4 6.1-1.2 8.2c-0.8 2.1-1.8 4-3 5.8 l-9.4 13.9c-5.7 8.4-9.2 14.1-10.7 17c-2.2 4.3-3.3 8.6-3.3 12.9c0 6.5 2.4 12.3 7.1 17.4c4.7 5 11.4 7.5 20.1 7.5 c3.7 0 7.9-0.7 12.7-2.1c4.8-1.5 8-2.1 9.8-2.1c1.9 0 3.3 0.4 4.2 1.1c0.9 0.8 1.7 1.8 2.5 3.1h3.2l-4.6-32h-3.8 c-1 7.2-2.5 12.7-4.4 16.4c-3.6 6.9-9.4 10.2-17.2 10.2c-3.3 0-6.3-1.1-8.9-3.1c-2.6-2.1-3.9-5.1-3.9-9.1 c0-3.1 0.6-5.8 1.8-8.1c1.2-2.4 3.9-6.5 8-12.5l8-11.6c4.1-5.9 7.1-10.8 8.8-14.5c1.7-3.8 2.6-7.7 2.6-12.1 c0-8.1-3.5-14.9-10.4-20.4c-6.9-5.5-15.1-8.2-24.6-8.2c-3.1 0-7.5 0.6-13.2 1.9c-5.7 1.3-9 2-9.9 2c-1.5 0-2.6-0.3-3.3-1 c-0.7-0.6-1.4-1.6-2-2.8h-3.7L1057.3 81.8" class="style0"/><path inkscape:connector-curvature="0" d="M1180.8 178.6c-2.2 2.4-3.3 5.4-3.3 8.7 c0 3.5 1.1 6.5 3.3 8.9c2.2 2.4 4.8 3.6 7.9 3.6s5.7-1.2 8-3.6c2.2-2.4 3.3-5.4 3.3-8.9c0-3.5-1.1-6.4-3.3-8.8 c-2.2-2.4-4.9-3.5-8-3.5S1183 176.2 1180.8 178.6z M1191.6 150.4c0.4-0.3 0.6-0.6 0.5-1l-22.6-80.6c-1.1-4.3-1.6-6.9-1.6-7.7 c0-1.1 0.2-2.1 0.7-3c0.4-0.9 1.3-1.4 2.8-1.4c2.6 0 6 2.2 10.2 6.7c2.5 2.7 5.6 6.4 9.2 11.3l3-2.5l-1.1-1.6 c-5.7-8-10.4-13.6-14.1-17.1c-5.8-5.4-11.5-8.1-17-8.1c-3.2 0-5.9 1.4-8.1 4.1c-2.1 2.6-3.2 5.9-3.2 9.6c0 2.2 0.1 4.1 0.4 5.7 c0.3 1.6 0.8 4 1.7 7.2l16.1 58.2c0.2 0.9 0.4 1.7 0.6 2.5c0.2 0.8 0.2 1.5 0.2 2.2c0 2.7-1 4.4-3 5c-2 0.7-6 1-11.9 1v3.6 c6.2 0.7 10.6 1.3 13.3 1.7c2.7 0.4 5.5 0.9 8.2 1.3c3.6 0.6 7 1.3 10.2 2.1C1189.4 150.4 1191.2 150.6 1191.6 150.4" class="style0"/><path inkscape:connector-curvature="0" d="M1207.7 48l19.3 69.6c1.7 5.9 2.6 9.5 2.9 10.8 c0.3 1.2 0.4 2.6 0.4 4c0 2.2-0.6 3.9-1.9 5.2c-1.2 1.2-3.7 1.9-7.3 1.9c-0.9 0-1.8 0-2.7-0.2c-0.8-0.1-1.8-0.3-2.9-0.4v3.6 c4.9 0.8 8.3 1.3 10.4 1.7c2.1 0.4 4.3 0.8 6.7 1.4l20 4.4c0.5-0.3 0.8-0.6 0.9-1.1l-14.8-48.5c9.2 14.1 16.9 24.5 23.2 31.4 c10.9 12.1 20.7 18.2 29.3 18.2c3.3 0 6.2-0.6 8.6-1.9c4.6-2.5 6.9-7 6.9-13.5c0-1.8-0.2-3.6-0.6-5.6c-0.4-1.9-0.9-4.1-1.5-6.3 l-14.8-53.9c-0.3-1.1-0.7-2.5-1.1-4.1c-0.4-1.6-0.5-2.7-0.5-3.4c0-1.1 0.2-2.2 0.8-3.1c0.5-0.9 1.4-1.4 2.5-1.4 c1.9 0 4.1 1.1 6.6 3.5c2.5 2.3 6.5 7.2 12.1 14.8l3.2-3c-6.1-8.4-10.9-14.2-14.4-17.6c-6.1-6-11.9-8.9-17.4-8.9 c-2.5 0-4.9 0.9-7.3 2.5c-2.3 1.7-3.5 4.8-3.5 9.2c0 1.3 0.1 2.6 0.3 4.1c0.2 1.4 0.4 2.7 0.7 3.7l14.5 54.7 c0.8 3 1.3 5.5 1.5 7.4c0.3 1.9 0.4 3.3 0.4 4.1c0 1.8-0.4 3.3-1.3 4.6c-0.9 1.3-2.4 2-4.6 2c-5.7 0-12.9-5.1-21.6-15.3 c-5.1-6.1-10.3-13.3-15.6-21.7c-4-6.5-7.1-12.8-9.4-19c-2.3-6.2-5.9-17.5-10.8-33.9L1207.7 48" class="style0"/><path inkscape:connector-curvature="0" d="M1361.4 94.4c2.4-4.6 6.8-6.9 13-6.9 c6.8 0 12.9 4.4 18.2 13c5.3 8.7 8 18.3 8 28.8c0 5-1.1 8.9-3.3 11.8c-2.2 2.8-5.5 4.3-9.8 4.3c-8.4 0-15.3-4.5-20.4-13.6 c-5.2-9-7.7-17.7-7.7-26.1C1359.3 101.1 1360 97.3 1361.4 94.4z M1385.8 11.1c5.9 4.3 8.9 9.4 8.9 15.4c0 4.5-1.6 8.3-4.7 11.5 c-1.7 1.6-4.3 3.4-8 5.3c-3.1 1.5-8.4 3.7-15.7 6.5c-7.3 2.8-11.6 4.2-12.7 4.2c-2 0-5.8-2.6-11.4-7.9 c-5.6-5.2-8.4-11.2-8.4-17.8c0-10.1 4.3-16.9 13-20.7c4.5-2 10.1-2.9 16.7-2.9C1372.4 4.7 1379.8 6.8 1385.8 11.1L1385.8 11.1z M1327.5 41.6c4.3 5 11.2 10.1 20.6 15.1c-1.9 1.2-3.4 2.5-4.6 3.8c-1.2 1.3-1.8 3.1-1.8 5.3c0 3.1 2.2 6.7 6.4 10.7 c2.4 2.3 6.3 5.3 11.7 9c-4.8 1.8-8.9 4.4-12.3 7.6c-4.2 4.5-6.3 10.2-6.3 17.3c0 11.4 4.4 20.8 13.4 28.3 c8.9 7.5 19.9 11.3 33 11.3c6.9 0 12.7-1.1 17.4-3.1c4.7-2.1 7.5-3.8 8.4-5.2h15.1v-9.2H1417c0.4-1.7 0.8-3.2 1-4.5 c0.2-1.4 0.3-3.3 0.3-5.8c0-12.2-4.8-21.9-14.2-28.9c-9.5-7-19.7-10.5-30.6-10.5c-1.1 0-2.2 0.1-3.2 0.2 c-1 0.1-2.2 0.3-3.6 0.6c-1.2 0-2.7-1.1-4.6-3.3c-2-2.2-3.1-4.2-3.1-5.9c0-2.6 8.3-7 24.9-13.2c16.6-6.3 24.8-15.4 24.8-27.4 c0-9-4.2-16.9-12.4-23.7c-8.3-6.7-20.8-10.1-37.5-10.1c-11.6 0-20.8 2.5-27.6 7.4c-6.8 5-10.2 11-10.2 18.1 C1321 31.1 1323.2 36.5 1327.5 41.6" class="style0"/><path inkscape:connector-curvature="0" d="M1507.7 94.2c3.9-10.4 8.5-18.7 13.7-24.9 c9.1-10.8 20.5-16.2 34.1-16.2c7.3 0 13.7 2.4 19.1 7c5.4 4.7 8 11.2 8 19.6c0 7.6-2.7 14.1-8.1 19.7c-3.5 3.5-11 8.9-22.3 16 l-19.7 12.3c-5.9 3.8-10.6 7.6-14.2 11.4c-6.5 7.3-9.8 15.4-9.8 24.2c0 11.7 3.9 21.4 11.7 29.2c7.8 7.7 18 11.7 30.8 11.7 c5.3 0 11.6-1.3 19-3.8c7.4-2.5 11.6-3.8 12.7-3.8c2.8 0 4.8 0.7 5.9 2c1.1 1.3 1.9 3.1 2.6 5.5h4.7l5.2-49.3h-5.5 c-3.7 14.9-9.8 25.3-18.2 31.2c-8.3 5.9-16.6 8.9-24.8 8.9c-6.3 0-11.9-1.9-16.6-5.6c-4.7-3.7-7.1-8.9-7.1-15.5 c0-6 1.8-11.1 5.4-15.3c3.6-4.3 9.2-8.8 16.8-13.5l20.4-12.5c12.7-7.9 21.7-15.1 26.9-21.6c5.1-6.6 7.7-14.4 7.7-23.4 c0-12.1-4.6-22.2-13.7-30.3c-9.1-8.1-20.8-12.1-34.9-12.1c-7.1 0-14.6 1.3-22.4 4c-7.8 2.7-12.2 4.1-13.3 4.1 c-2.7 0-4.5-0.9-5.5-2.6c-0.9-1.8-1.5-3.6-1.8-5.5h-5.2l-7 49.3L1507.7 94.2" class="style0"/><path inkscape:connector-curvature="0" d="M1615.9 201.1h130.9l1-39.2h-5.4 c-2.7 12.4-6.2 20.4-10.4 24.1c-4.2 3.8-13.1 5.6-26.5 5.6h-12.7V73.1c0-8.9 1.4-14.3 4.1-16.5c2.8-2.1 8.8-3.5 18.1-4.2V48 h-67.4v4.4c9.9 0.8 16.1 2.3 18.5 4.8c2.4 2.4 3.7 8.7 3.7 18.6v115.7h-12.6c-12.8 0-21.6-1.9-26.2-5.6 c-4.7-3.6-8.1-11.7-10.5-24.1h-5.7L1615.9 201.1" class="style0"/><path inkscape:connector-curvature="0" d="M1843.6 107.1L1817 171l-26.7-63.8 C1790.3 107.1 1843.6 107.1 1843.6 107.1z M1743.9 48v4.4c5.9 0.6 10.4 2.8 13.4 6.6c3 3.7 8.1 14.1 15.3 31.2l48 113.5h5 L1883 72.5c3.8-8.6 6.9-13.9 9.3-15.9c2.3-2 6.2-3.4 11.6-4.1V48H1845v4.4c6.8 0.6 11.1 1.3 13.1 2.1c2 0.9 2.9 2.9 2.9 6.3 c0 1.1-0.4 3.1-1.2 5.9c-0.8 2.8-1.8 5.8-3.1 8.9l-9.2 22.1h-61c-6.1-15-9.7-24.3-10.8-27.5c-1.2-3.3-1.8-6-1.8-7.9 c0-3.9 1.6-6.5 4.7-8c1.9-0.9 5.7-1.6 11.1-2V48H1743.9" class="style0"/><path inkscape:connector-curvature="0" d="M1998.8 132.2c12.2 5 18.2 14.6 18.2 28.6 c0 13.5-5.5 22.6-16.5 27.6c-5.8 2.6-13.6 4-23.3 4c-6.5 0-10.5-0.5-12-1.4c-1.5-1-2.2-3.2-2.2-6.6V127 C1979.7 127.6 1991.6 129.3 1998.8 132.2L1998.8 132.2z M1919.7 52.4c8.9 0.8 14.4 2.5 16.6 5.2c2.2 2.6 3.3 8.7 3.3 18.3 v100.2c0 8.1-1.2 13.4-3.7 15.9c-2.4 2.5-7.8 4.1-16.2 4.8v4.4h64c13.4 0 24.5-1.7 33.3-5.1c16.8-6.4 25.3-18.2 25.3-35.4 c0-11.5-3.7-20.4-11.2-26.5c-7.5-6.2-17.6-10.2-30.5-12.2l47.7-58.6c2.9-3.5 5.9-6.2 8.8-7.8c2.9-1.6 6.7-2.7 11.3-3.1V48 h-37.3l-58 71.3l-10.1-0.5V73.1c0-8.5 1.3-13.9 3.9-16.2c2.6-2.3 8.2-3.8 17-4.5V48h-64.2L1919.7 52.4" class="style0"/><path inkscape:connector-curvature="0" d="M2159.4 56.3c3.1-4.1 7.7-6.2 13.7-6.2 c12.2 0 23.1 9.3 32.5 27.9c8.1 16 12.1 30.7 12.1 44.1c0 5.7-0.7 10.3-2.1 13.7c-2.6 6.6-7.4 9.9-14.4 9.9 c-11.5 0-22.3-8.7-32.4-26.1c-9.5-16.2-14.2-32.2-14.2-47.9C2154.8 65.6 2156.3 60.4 2159.4 56.3L2159.4 56.3z M2229.3 140.4 c5.2-6.8 7.8-14.8 7.8-24c0-16-7-31.6-21.1-47c-14.5-16-30-24-46.4-24c-10.4 0-18.7 3-24.9 9c-6.2 6.1-9.3 14.5-9.3 25.4 c0 16.5 7 32.3 20.9 47.4c14.3 15.5 29.7 23.2 46.3 23.2C2215.3 150.5 2224.2 147.1 2229.3 140.4" class="style0"/><path inkscape:connector-curvature="0" d="M2340.2 183.9c-1.6-2.1-3.9-3.2-6.8-3.2 c-2.6 0-4.6 0.8-6.3 2.4c-1.6 1.7-2.5 3.5-2.5 5.7c0 1.5 0.7 4.1 2.1 7.8c0 1-0.5 1.9-1.4 2.6c-0.9 0.7-1.9 1-3.1 1 c-5.7 0-10.4-6.1-14.3-18.2c-2.1-7-4.6-18.9-7.2-35.4h25.2l-1.6-7.5h-25.7l-21.6-74c-4.6-19.4-10.7-35.2-18.4-47.1 c-7.7-12-17.6-18-29.5-18c-5.5 0-10.1 1.5-13.6 4.4c-3.5 2.9-5.3 6.2-5.3 9.9c0 2.2 0.7 4.3 2.2 6.3c1.5 1.9 3.7 2.9 6.7 2.9 c2.6 0 4.7-0.8 6.5-2.5c1.8-1.7 2.7-3.8 2.7-6.2c0-1.4-0.4-2.7-1.2-4.1c-0.8-1.4-1.2-2.3-1.2-2.8c0-0.7 0.4-1.2 1.3-1.7 c0.9-0.4 2-0.6 3.4-0.6c6.4 0 11.8 5 16.2 15c2.3 5.2 4.5 12.5 6.4 21.6l26.9 97.1h-20.9l1.6 7.5h21.8 c4.1 17.5 8.8 30.4 13.9 38.9c7.6 12.9 17 19.4 28.2 19.4c5.1 0 9.4-1.4 12.8-4.3c3.4-2.9 5.1-6.3 5.1-10 C2342.7 188.2 2341.9 185.9 2340.2 183.9" class="style0"/><path inkscape:connector-curvature="0" d="M2380.9 51.6c6.8 0.5 11.7 1.5 14.4 2.9 c4.6 2.5 7.9 7.2 9.8 14.1l33.9 122.3c-17.8 0-29.4-1.3-35.2-4c-5.7-2.7-12.4-10.8-20-24.4l-4.1 0.8l9.6 35.7h123.4l-10.1-37.7 l-4.1 0.5l0.5 8c0 7.1-1.6 12.4-4.8 15.9c-3.2 3.5-9.5 5.3-19.1 5.3h-12.9l-32.4-115.3c-0.8-2.5-1.3-4.7-1.7-6.7 c-0.7-2.9-1-5.3-1-7c0-4.5 1.4-7.3 4.2-8.4c2.8-1.1 8.2-1.7 16.4-1.9V48h-66.8L2380.9 51.6" class="style0"/><path inkscape:connector-curvature="0" d="M2540.8 111.4c9 8 13.5 15.9 13.5 23.8 c0 2.8-0.7 5.1-2 6.8c-1.4 1.7-3.3 2.5-6 2.5c-4.9 0-9.7-2.1-14.4-6.2c-4.7-4.2-9-8.9-12.7-14.2c-4-6.2-7.2-12-9.5-17.7 c-1.3-3-2.6-6.4-4.1-10.2C2520 98.3 2531.8 103.4 2540.8 111.4z M2504.2 126.5c14.9 15.6 30.3 23.5 46.2 23.5 c5.9 0 10.5-1.4 14-4.1c3.5-2.7 5.2-6.7 5.2-12.1c0-10.8-6.4-20.1-19.1-27.8c-12.7-7.7-26.1-12.4-40.1-14.1l-6.5-0.8 c-0.9-3.1-1.6-5.5-2-7.4c-0.4-1.9-0.6-4.1-0.6-6.9c0-6.5 2.1-11.7 6.5-15.4c4.3-3.7 9.5-5.5 15.5-5.5c5.6 0 11.6 1.9 17.9 5.6 c3.6 2.2 8.9 6.1 15.7 11.7l3-2.6c-3.4-4.3-8.3-8.7-14.6-13.2c-11.2-8.1-22.5-12.1-33.8-12.1c-8 0-15 2.8-21 8.4 c-6.1 5.6-9.1 13.7-9.1 24.2C2481.6 94.8 2489.1 110.9 2504.2 126.5" class="style0"/><path inkscape:connector-curvature="0" d="M2573.3 61.9c1.8 1.2 3.7 1.9 5.5 1.9 c0.9 0 1.8-0.2 2.7-0.4c0.9-0.3 1.9-0.7 2.9-1.3l4-2.1c0.5-0.3 1-0.5 1.5-0.6c0.5-0.1 1-0.2 1.6-0.2c1.9 0 3.3 0.5 4.4 1.4 c1 0.9 3.6 4.2 7.9 9.9c2.8 3.7 9.1 12.6 19 26.9c0 0.5-0.9 4.6-2.6 12.1c-1.7 7.6-3.3 14-4.7 19.3c-1.5 5.3-2.7 8.8-3.9 10.5 c-1.1 1.7-3.2 2.6-6.3 2.6c-1.1 0-3.2-0.4-6.3-1.2c-1.9-0.4-4.1-0.9-6.3-1.6l-1 3.8l12.5 4.3c3.2 1.1 6.2 2 8.9 2.7 c2.8 0.7 5.1 1 7 1c3.2 0 5.5-1 7.1-2.8c2.4-3.1 4.4-9.1 6.1-18l2.4-12.9c6.8 10.4 12.1 17.8 15.9 22c3.4 3.9 6.6 6.7 9.7 8.6 c3 1.9 5.9 2.9 8.6 2.9c2.6 0 4.7-0.4 6.3-1.2c2.9-1.3 4.3-3.9 4.3-7.7c0-2.6-0.7-4.6-2.2-6c-1.4-1.4-3.3-2.2-5.6-2.2 c-0.8 0-1.6 0.1-2.4 0.3c-0.8 0.2-1.6 0.5-2.4 0.8l-3 1.3c-0.8 0.4-1.6 0.7-2.4 0.9c-0.8 0.3-1.3 0.4-1.7 0.4 c-3.4 0-8.2-4.4-14.2-13.2c-6.1-8.8-9.1-13.9-9.1-15.2c0-1.2 0.7-4.8 2.1-11c1.5-6.1 2.9-12.7 4.6-19.6 c1.5-6.5 2.8-11 3.9-13.5c1.8-4 3.8-6 6-6c2.1 0 4.2 1.1 6.3 3.4c2.2 2.3 5.3 6.3 9.6 12.2l3.1-1.9 c-3.2-5.9-6.6-10.9-10.1-15.1c-6.5-7.8-12.8-11.8-18.8-11.8c-3.8 0-6.8 1.8-8.9 5.4c-1.3 2.1-2.5 5.6-3.7 10.4l-7 27.9 l-23.2-30.3c-4.5-5.3-8-8.8-10.5-10.6c-2.4-1.8-5.4-2.7-9.1-2.7c-4.8 0-8.1 1.5-9.9 4.5c-1 1.6-1.5 3.5-1.5 5.7 C2570.5 58.6 2571.4 60.6 2573.3 61.9" class="style0"/><path inkscape:connector-curvature="0" d="M2760.7 142c-2.5 2.6-5.5 3.9-9.1 3.9 c-12.4 0-23.8-9.5-34.5-28.5c-9.3-16.7-14-31.1-14-43.1c0-6.1 1.3-10.5 3.9-13.3c2.6-2.8 5.8-4.2 9.6-4.2 c11.3 0 22.2 9.2 32.8 27.7c10 16.8 15.1 31.9 15.1 45.5C2764.5 135.4 2763.2 139.4 2760.7 142z M2764.4 146 c1.7-1.6 3.1-3.7 4.1-6.3l0.6-1.6l2.6 8.2c0.3 1 0.6 1.6 0.8 1.9c0.2 0.4 0.8 0.6 1.6 0.6l13.2 1.4c0.7 0 1.1-0.2 1.2-0.4 c0.1-0.2 0.1-0.7 0-1.4c-0.3-1-0.6-1.8-0.8-2.3c-0.2-0.6-0.4-1.4-0.7-2.4l-11.2-40.4c-2.4-8.8-4.5-16.4-6.2-22.8 c-2.8-11.4-4.2-18-4.2-19.7c0-1 0.3-1.8 0.9-2.2c0.6-0.5 1.3-0.7 2.1-0.7c0.7 0 1.4 0.2 2.3 0.7c0.8 0.4 1.8 1.1 3 2l2 1.6 c0.7 0.6 1.4 1.1 2.2 1.9c0.8 0.7 1.8 1.6 2.9 2.7l7.4 7.2l2.7-2.3c-8.1-10-14.5-16.9-19.4-20.5c-4.9-3.5-9.5-5.3-13.9-5.3 c-2.9 0-5.1 0.9-6.6 2.9c-1.5 1.9-2.3 4.4-2.3 7.3c0 2.7 0.5 6.6 1.5 11.6c1.1 5 2 9.3 3.1 12.7c-1.4-2.2-3.7-5.5-6.9-9.8 c-3.2-4.3-7.1-8.5-11.7-12.6c-5.5-4.9-10.8-8.3-15.8-10.4c-3.9-1.4-7.7-2-11.3-2c-6.1 0-11.6 2.5-16.6 7.5 c-5 5-7.4 12.1-7.4 21.3c0 15.8 7.1 32.3 21.4 49.5c14.7 17.9 30 26.8 45.8 26.8C2756.4 150.5 2761.1 149 2764.4 146" class="style0"/><path inkscape:connector-curvature="0" d="M2803.3 81.8h3.7c1.7-9.3 3.6-16.1 5.9-20.4 c4.2-7.8 10.4-11.8 18.7-11.8c4.6 0 8.5 1.6 11.6 4.8c3.2 3.3 4.7 7.5 4.7 12.9c0 3.4-0.4 6.1-1.2 8.2c-0.8 2.1-1.8 4-3 5.8 l-9.5 13.9c-5.7 8.4-9.2 14.1-10.6 17c-2.2 4.3-3.3 8.6-3.3 12.9c0 6.5 2.4 12.3 7.1 17.4c4.7 5 11.4 7.5 20.1 7.5 c3.7 0 7.9-0.7 12.7-2.1c4.8-1.5 8-2.1 9.8-2.1c1.9 0 3.3 0.4 4.2 1.1c0.9 0.8 1.7 1.8 2.5 3.1h3.2l-4.6-32h-3.7 c-1 7.2-2.5 12.7-4.4 16.4c-3.6 6.9-9.4 10.2-17.2 10.2c-3.3 0-6.3-1.1-8.9-3.1c-2.6-2.1-3.9-5.1-3.9-9.1 c0-3.1 0.6-5.8 1.8-8.1c1.2-2.4 3.9-6.5 8-12.5l8-11.6c4.2-5.9 7.1-10.8 8.8-14.5c1.7-3.8 2.6-7.7 2.6-12.1 c0-8.1-3.4-14.9-10.4-20.4c-6.9-5.5-15.1-8.2-24.6-8.2c-3.1 0-7.5 0.6-13.2 1.9c-5.7 1.3-9 2-9.9 2c-1.5 0-2.6-0.3-3.3-1 c-0.7-0.6-1.4-1.6-2-2.8h-3.8L2803.3 81.8" class="style0"/><path inkscape:connector-curvature="0" d="M651.4 727.6v-6.8c-14.2-1-23.4-3.3-27.6-7.1 c-4.2-3.8-6.3-12.5-6.3-26V569.5c0-19.4 2.6-34.5 7.9-45.2c9.9-19.7 28.5-29.6 56.1-29.6c30.2 0 50.4 10.1 60.7 30.3 c5.8 11.3 8.7 28.7 8.7 52.3v96.1c0 20.1-2.4 32.7-7.2 37.8c-4.8 5.1-13.9 8.3-27.4 9.6v6.8h85.4v-6.8 c-14.3-1.6-23.6-5-28-10.4c-4.4-5.3-6.6-17.7-6.6-37v-96.1c0-25.5-3.9-45.4-11.7-59.7c-14.4-26.3-41.8-39.5-82.2-39.5 c-39.9 0-67.1 13-81.5 38.9c-7.8 14-11.7 32.3-11.7 55.2v115.4c0 13.5-2.1 22.1-6.2 25.9c-4.1 3.8-13.2 6.2-27.1 7.3v6.8 L651.4 727.6" class="style0"/><path inkscape:connector-curvature="0" d="M828 490.2c15.3 1.5 25.1 5 29.4 10.4 c4.3 5.3 6.5 17.7 6.5 37.2v162.7l-5.1 5.9c-5.4 6.4-10 10.3-13.8 11.8c-3.8 1.5-9.5 2.4-17 2.6v6.8h63L1033.5 551v122.7 c0 20.2-3 33.3-9 39.4c-4 3.9-12.7 6.5-26.3 7.7v6.8h86.7v-6.8c-14.1-1.4-23.4-4.9-28.1-10.3c-4.7-5.4-7-17.8-7-37.1V479.1 h-6.3L880.1 681.5V537.8c0-20.2 2.9-33.3 8.8-39.4c3.8-4 12.4-6.7 25.8-8.1v-6.9H828L828 490.2" class="style0"/><path inkscape:connector-curvature="0" d="M1111.7 490.2c15 1.1 24.8 3.3 29.2 6.7 s6.7 12.2 6.7 26.4v164.2c0 13.6-2.2 22.3-6.7 26.2c-4.4 3.9-14.2 6.2-29.2 6.9v6.8h109.2v-6.8c-15-0.7-24.8-3-29.2-6.9 c-4.4-3.9-6.7-12.7-6.7-26.2V523.4c0-14.2 2.2-23 6.7-26.4c4.4-3.4 14.2-5.6 29.2-6.7v-6.9h-109.2V490.2" class="style0"/><path inkscape:connector-curvature="0" d="M1347.1 727.6v-6.3c-9.2-0.1-15.5-0.7-18.9-1.8 c-5.9-2-8.8-5.9-8.8-11.9c0-3.1 1.1-7.3 3.2-12.8c2.1-5.5 6-14.6 11.7-27.3l57.8-128.5l52.5 139.1c2.3 6.2 4.1 11.4 5.3 15.6 c1.2 4.3 1.8 7.8 1.8 10.4c0 7.2-3.1 12.1-9.2 14.7c-3.6 1.5-9.6 2.3-17.8 2.6v6.3h75.5v-6.3c-7.8-1.1-13.6-3.2-17.3-6.3 c-5.6-4.7-11.2-14.1-16.8-28.3l-81.8-207.7h-5.5L1287.5 682c-7.7 17.2-13.9 27.9-18.5 32.1c-4.6 4.2-11.4 6.6-20.3 7.2v6.3 L1347.1 727.6" class="style0"/><path inkscape:connector-curvature="0" d="M1527.8 490.2c13.6 1.4 22.4 3.8 26.4 7.3 c4 3.4 6 12 6 25.9v164.2c0 13.1-2 21.7-5.9 25.7c-4 4-12.8 6.5-26.5 7.5v6.8h196.1l1.3-52.8h-9.4 c-3.1 16.3-7.8 26.8-14.1 31.6c-6.2 4.8-20.2 7.2-41.8 7.2h-50.3c-5.4 0-8.8-0.9-10-2.6c-1.3-1.8-1.9-5-1.9-9.8v-82.4h57 c15.8 0 25.8 2.3 30.1 7c4.3 4.6 7.8 14.1 10.4 28.3h8.7v-85.3h-8.7c-2.8 14.3-6.3 23.8-10.6 28.4c-4.3 4.6-14.3 7-29.9 7h-57 v-91.4c0-7.3 2.3-11.7 7-13c4.6-1.3 18.5-2 41.6-2c25 0 43.5 2.7 55.4 8.2c11.9 5.5 22.6 18.7 32.1 39.8h10.3l-16.8-62.4 h-199.5L1527.8 490.2" class="style0"/><path inkscape:connector-curvature="0" d="M1895.7 618.2c19.6 8 29.4 23.1 29.4 45.3 c0 21.4-8.8 35.9-26.3 43.7c-9.4 4.2-21.8 6.3-37.3 6.3c-10.4 0-16.8-0.8-19.2-2.2c-2.3-1.5-3.5-5-3.5-10.5v-90.9 C1865.3 610.9 1884.3 613.6 1895.7 618.2L1895.7 618.2z M1769.5 490.2c14.2 1.3 23 4.1 26.5 8.2c3.5 4.2 5.2 13.9 5.2 29.3 v159.9c0 13-1.9 21.5-5.9 25.5c-3.9 4-12.5 6.6-25.9 7.6v6.8h102.2c21.3 0 39-2.7 53.2-8.1c26.9-10.2 40.4-29 40.4-56.3 c0-18.4-6-32.5-17.9-42.3c-11.9-9.8-28.2-16.3-48.8-19.4l76.1-93.7c4.7-5.7 9.4-9.9 14.1-12.5c4.7-2.6 10.7-4.3 18-5v-6.9 h-59.5l-92.3 113.8l-16.2-0.9v-72.8c0-13.7 2.1-22.3 6.2-26c4.1-3.7 13.2-6.1 27.1-7.3v-6.9h-102.6V490.2" class="style0"/><path inkscape:connector-curvature="0" d="M2031 557.7c6.2-16.6 13.6-29.8 22-39.7 c14.6-17.2 32.8-25.8 54.5-25.8c11.8 0 21.9 3.7 30.5 11.2c8.6 7.5 12.9 17.8 12.9 31.2c0 12-4.3 22.5-12.9 31.3 c-5.7 5.7-17.5 14.1-35.6 25.4l-31.5 19.6c-9.5 6-17 12.1-22.7 18.2c-10.5 11.7-15.7 24.5-15.7 38.6c0 18.6 6.2 34.1 18.6 46.5 c12.4 12.4 28.8 18.6 49.2 18.6c8.4 0 18.5-2.1 30.4-6.2c11.8-4.1 18.6-6.2 20.3-6.2c4.6 0 7.7 1.1 9.4 3.2 c1.7 2.2 3.1 5.2 4.1 9.2h7.6l8.1-78.6h-8.8c-6 23.7-15.7 40.2-29 49.6c-13.2 9.4-26.4 14-39.4 14c-10.1 0-18.9-3-26.4-8.9 c-7.5-5.9-11.3-14.2-11.3-24.8c0-9.5 2.9-17.6 8.6-24.3c5.8-6.9 14.7-14 26.8-21.5l32.4-20c20.3-12.5 34.6-24 42.9-34.4 c8.2-10.6 12.3-23.1 12.3-37.5c0-19.4-7.3-35.5-21.9-48.5c-14.6-13-33.3-19.5-55.9-19.5c-11.4 0-23.4 2.1-35.8 6.5 c-12.4 4.3-19.6 6.5-21.4 6.5c-4.3 0-7.2-1.3-8.7-4c-1.5-2.7-2.5-5.5-3-8.5h-8.1l-11 78.6L2031 557.7" class="style0"/><path inkscape:connector-curvature="0" d="M2214.4 490.2c15 1.1 24.8 3.3 29.2 6.7 c4.5 3.4 6.7 12.2 6.7 26.4v164.2c0 13.6-2.2 22.3-6.7 26.2c-4.4 3.9-14.2 6.2-29.2 6.9v6.8h109.2v-6.8 c-15-0.7-24.8-3-29.2-6.9c-4.4-3.9-6.7-12.7-6.7-26.2V523.4c0-14.2 2.2-23 6.7-26.4c4.5-3.4 14.2-5.6 29.2-6.7v-6.9h-109.2 V490.2" class="style0"/><path inkscape:connector-curvature="0" d="M2352.2 727.6H2561l2-62.7h-8.8 c-4.4 19.7-9.8 32.5-16.5 38.5c-6.6 5.9-20.7 8.9-42.1 8.9H2475V523.4c0-14.2 2.2-23 6.7-26.4c4.4-3.4 14.2-5.6 29.2-6.7v-6.9 h-107.6v6.9c15.6 1.2 25.4 3.8 29.2 7.7c3.9 4 5.8 13.9 5.8 29.8v184.6h-20.7c-20.4 0-34.3-2.9-41.7-8.8 c-7.4-5.9-12.9-18.8-16.7-38.6h-9L2352.2 727.6" class="style0"/><path inkscape:connector-curvature="0" d="M2689 727.6v-6.8c-8.7 0.2-15.1-0.4-19.5-2 c-4.3-1.6-6.5-4.9-6.5-10.1c0-1.6 0.3-3.5 1.1-5.9c0.7-2.3 2.4-5.4 4.9-9.3l54.3-79.7l53 81c2.1 3.5 3.5 6.4 4.2 8.7 c0.7 2.3 1 4 1 5c0 5.3-2.8 8.8-8.5 10.5c-3.4 1.1-9.1 1.7-17.3 1.8v6.8h80.7v-6.8c-7.4-0.4-14.1-2.6-20-6.7 c-9.1-6.4-19.4-18.2-30.8-35.5l-54.5-83.3v-71.8c0-14.3 2.3-23.2 6.9-26.7c4.6-3.5 15-5.7 31.1-6.6v-6.9h-112.6v6.9 c16.7 1 27.1 3.4 31.1 7.5c4 4 6 14.1 6 30.1v64.1l-48.3 70.8c-16.7 24.4-28.4 40.1-35.1 47c-6.7 6.9-14.9 10.6-24.5 11.1v6.8 H2689" class="style0"/><path inkscape:connector-curvature="0" d="M74.5 1262.7H312l2.3-71.4h-10.1 c-4.9 22.4-11.2 37-18.8 43.8c-7.6 6.8-23.5 10.2-47.9 10.2h-23.4v-215c0-16.2 2.5-26.2 7.6-30.1c5.1-3.9 16.1-6.4 33.2-7.6 v-7.8H132.5v7.8c17.8 1.4 28.9 4.3 33.2 8.8c4.4 4.5 6.6 15.8 6.6 33.9v210.1h-23.6c-23.3 0-39.1-3.3-47.5-10.1 c-8.4-6.7-14.7-21.3-19-43.9H72L74.5 1262.7" class="style0"/><path inkscape:connector-curvature="0" d="M341.1 992.5c15.5 1.6 25.5 4.4 30.1 8.3 c4.6 3.9 6.9 13.7 6.9 29.5v186.9c0 14.9-2.3 24.7-6.8 29.3c-4.5 4.6-14.6 7.4-30.2 8.5v7.8h223.2l1.4-60.1H555 c-3.6 18.5-8.9 30.5-16 35.9c-7.1 5.4-23 8.2-47.6 8.2h-57.2c-6.2 0-10-1-11.4-3c-1.5-2-2.2-5.7-2.2-11.2v-93.8h64.8 c17.9 0 29.3 2.7 34.3 8c4.9 5.3 8.9 16.1 11.9 32.2h9.8v-97h-9.8c-3.1 16.3-7.2 27-12.1 32.3c-4.9 5.3-16.3 7.9-34.1 7.9 h-64.8v-104c0-8.3 2.6-13.3 7.9-14.8c5.3-1.5 21.1-2.2 47.4-2.2c28.5 0 49.5 3.1 63.1 9.3c13.6 6.2 25.7 21.3 36.6 45.2h11.7 l-19.1-71H341.1V992.5" class="style0"/><path inkscape:connector-curvature="0" d="M596.5 992.5c11.2 1.2 19.8 4.2 25.6 8.9 c5.8 4.7 17.4 17.8 34.8 39.3l64.9 80.3l-46 67.4c-20.1 29.4-34.1 47.7-42.3 54.8c-8.2 7.2-19 11-32.5 11.6v7.8h126.4v-7.8 c-12.2-0.4-20.1-1.2-23.8-2.5c-5.6-1.8-8.4-5.6-8.4-11.6c0-3.8 1.4-8.4 4.1-13.7c1.4-2.7 3.3-5.9 5.7-9.4l43.3-62.8l47.1 57.3 c6.9 8.3 11.6 15.1 14.1 20.1c1.5 3 2.2 5.7 2.2 8.2c0 6.2-3 10.2-9 12.3c-3.7 1.2-10.4 1.9-20.1 2.1v7.8h99.5v-7.8 c-11.2-0.3-19.9-2.1-26.1-5.3c-9.7-5.3-21.7-16.8-36.1-34.5l-60.7-76.2l79.6-115.2c8.5-12.4 15.6-20.3 21.2-23.7 c5.7-3.3 14-5.8 24.9-7.5v-7.8H761.6v7.8c11.9 0.3 20.1 1.3 24.8 3.1c4.7 1.8 7 5.2 7 10.3c0 4.4-3.1 11.7-9.3 21.9 c-6.2 10.2-23.5 36-51.6 77.4l-49.3-61.9c-7.2-9.1-12.2-15.8-15-20c-4.5-6.7-6.7-11.7-6.7-14.9c0-6 3.5-10.2 10.6-12.6 c4.2-1.5 11.3-2.6 21.4-3.3v-7.8h-96.9L596.5 992.5" class="style0"/><path inkscape:connector-curvature="0" d="M1060.9 1092.7l-48.2 115.7l-48.4-115.7 C964.3 1092.7 1060.9 1092.7 1060.9 1092.7z M879.9 984.8v7.8c10.8 1.2 18.9 5.3 24.3 12.2c5.4 6.9 14.7 25.8 27.8 56.7 l87.5 206.2h8.4l104.7-238.2c7-15.8 12.6-25.5 16.7-29.3c4.2-3.7 11.2-6.3 21-7.6v-7.8h-106.8v7.8c12.3 1.1 20.2 2.4 23.7 4 c3.6 1.6 5.3 5.4 5.3 11.5c0 2-0.7 5.6-2 10.8c-1.4 5.2-3.3 10.6-5.8 16.3l-16.8 40.4H957.2c-10.9-27.5-17.4-44.3-19.6-50.3 c-2.1-6.1-3.2-10.9-3.2-14.4c0-7.1 2.9-12 8.6-14.7c3.5-1.6 10.2-2.9 20.1-3.7v-7.8L879.9 984.8" class="style0"/><path inkscape:connector-curvature="0" d="M1194.1 1069.3c7.1-18.9 15.4-33.9 25-45.1 c16.7-19.6 37.4-29.4 62.1-29.4c13.4 0 24.9 4.2 34.7 12.7c9.8 8.5 14.6 20.3 14.6 35.5c0 13.7-4.9 25.6-14.7 35.7 c-6.4 6.4-19.9 16.1-40.5 28.9l-35.8 22.4c-10.8 6.8-19.4 13.7-25.8 20.7c-11.9 13.3-17.8 27.9-17.8 43.9 c0 21.2 7.1 38.9 21.1 52.9c14.1 14.1 32.8 21.1 56 21.1c9.6 0 21.1-2.4 34.6-7.1c13.5-4.7 21.2-7.1 23.1-7.1 c5.2 0 8.8 1.2 10.8 3.7c2 2.5 3.5 6 4.6 10.5h8.6l9.2-89.4h-10.1c-6.8 26.9-17.8 45.7-32.9 56.4c-15.1 10.7-30.1 16-44.8 16 c-11.5 0-21.5-3.4-30.1-10.1c-8.5-6.8-12.8-16.2-12.8-28.2c0-10.8 3.3-20 9.8-27.7c6.5-7.8 16.7-15.9 30.5-24.4l36.9-22.8 c23.1-14.2 39.4-27.3 48.9-39.2c9.3-12 14-26.3 14-42.7c0-22-8.3-40.4-24.9-55.2c-16.6-14.8-37.8-22.2-63.7-22.2 c-13 0-26.6 2.5-40.7 7.4c-14.2 4.9-22.3 7.4-24.3 7.4c-4.9 0-8.2-1.5-9.9-4.5c-1.7-3-2.8-6.2-3.4-9.6h-9.2l-12.5 89.5 L1194.1 1069.3" class="style0"/><path inkscape:connector-curvature="0" d="M2033.1 1069.3c7.1-18.9 15.4-33.9 25-45.1 c16.7-19.6 37.4-29.4 62.1-29.4c13.4 0 25 4.2 34.8 12.7c9.8 8.5 14.6 20.3 14.6 35.5c0 13.7-4.9 25.6-14.7 35.7 c-6.4 6.4-19.9 16.1-40.5 28.9l-35.8 22.4c-10.8 6.8-19.4 13.7-25.8 20.7c-11.9 13.3-17.8 27.9-17.8 43.9 c0 21.2 7.1 38.9 21.1 52.9c14.1 14.1 32.8 21.1 56 21.1c9.6 0 21.1-2.4 34.6-7.1c13.5-4.7 21.2-7.1 23.1-7.1 c5.2 0 8.8 1.2 10.8 3.7c2 2.5 3.5 6 4.6 10.5h8.6l9.2-89.4h-10c-6.8 26.9-17.8 45.7-32.9 56.4c-15.1 10.7-30.1 16-44.8 16 c-11.5 0-21.5-3.4-30.1-10.1c-8.5-6.8-12.8-16.2-12.8-28.2c0-10.8 3.3-20 9.8-27.7c6.6-7.8 16.7-15.9 30.5-24.4l36.9-22.8 c23.1-14.2 39.4-27.3 48.9-39.2c9.3-12 14-26.3 14-42.7c0-22-8.3-40.4-24.9-55.2c-16.6-14.8-37.8-22.2-63.7-22.2 c-13 0-26.6 2.5-40.7 7.4c-14.2 4.9-22.3 7.4-24.3 7.4c-4.9 0-8.2-1.5-10-4.5c-1.7-3-2.8-6.2-3.4-9.6h-9.2l-12.5 89.5 L2033.1 1069.3" class="style0"/><path inkscape:connector-curvature="0" d="M2253 1262.7h237.6l2.2-71.4h-10 c-4.9 22.4-11.2 37-18.8 43.8c-7.6 6.8-23.6 10.2-47.9 10.2h-23.4v-215c0-16.2 2.5-26.2 7.6-30.1c5.1-3.9 16.1-6.4 33.2-7.6 v-7.8H2311v7.8c17.8 1.4 28.9 4.3 33.2 8.8c4.4 4.5 6.6 15.8 6.6 33.9v210.1h-23.6c-23.2 0-39.1-3.3-47.5-10.1 c-8.4-6.7-14.7-21.3-19-43.9h-10.3L2253 1262.7" class="style0"/><path inkscape:connector-curvature="0" d="M2677.6 1092.7l-48.1 115.7l-48.4-115.7H2677.6z M2496.7 984.8v7.8c10.8 1.2 18.9 5.3 24.3 12.2c5.4 6.9 14.7 25.8 27.8 56.7l87.5 206.2h8.4l104.7-238.2 c7-15.8 12.5-25.5 16.7-29.3c4.2-3.7 11.2-6.3 21-7.6v-7.8h-106.8v7.8c12.3 1.1 20.2 2.4 23.8 4c3.6 1.6 5.3 5.4 5.3 11.5 c0 2-0.7 5.6-2 10.8c-1.4 5.2-3.3 10.6-5.7 16.3l-16.8 40.4H2574c-10.9-27.5-17.4-44.3-19.5-50.3c-2.1-6.1-3.2-10.9-3.2-14.4 c0-7.1 2.9-12 8.6-14.7c3.5-1.6 10.2-2.9 20.1-3.7v-7.8L2496.7 984.8" class="style0"/><path inkscape:connector-curvature="0" d="M2791.5 1262.7h237.6l2.2-71.4h-10.1 c-4.9 22.4-11.2 37-18.8 43.8c-7.6 6.8-23.6 10.2-47.9 10.2h-23.4v-215c0-16.2 2.5-26.2 7.6-30.1c5-3.9 16.1-6.4 33.2-7.6v-7.8 h-122.5v7.8c17.8 1.4 28.9 4.3 33.2 8.8c4.4 4.5 6.6 15.8 6.6 33.9v210.1h-23.6c-23.2 0-39.1-3.3-47.5-10.1 c-8.4-6.7-14.7-21.3-19-43.9H2789L2791.5 1262.7" class="style0"/><path inkscape:connector-curvature="0" d="M3064.4 992.5c15.5 1.6 25.5 4.4 30.1 8.3 c4.6 3.9 6.9 13.7 6.9 29.5v186.9c0 14.9-2.2 24.7-6.8 29.3c-4.5 4.6-14.6 7.4-30.2 8.5v7.8h223.2l1.4-60.1h-10.7 c-3.5 18.5-8.9 30.5-16 35.9c-7.1 5.4-23 8.2-47.6 8.2h-57.2c-6.2 0-10-1-11.4-3c-1.4-2-2.2-5.7-2.2-11.2v-93.8h64.8 c17.9 0 29.4 2.7 34.3 8c4.9 5.3 8.9 16.1 11.9 32.2h9.8v-97h-9.8c-3.1 16.3-7.2 27-12.1 32.3c-4.9 5.3-16.3 7.9-34.1 7.9H3144 v-104c0-8.3 2.6-13.3 7.9-14.8c5.3-1.5 21.1-2.2 47.4-2.2c28.5 0 49.5 3.1 63.1 9.3c13.6 6.2 25.7 21.3 36.6 45.2h11.7 l-19.1-71h-227.1L3064.4 992.5" class="style0"/><path inkscape:connector-curvature="0" d="M1440.3 1135.1l251.3-82.2l-59.4 82.2l59.4 182.7V1053 l59.4 82.2h192.1l-251.5-82.2l0 0l96.1-30.8l59.3-182.6L1691.6 1053V952.4l-155.3-112.9l155.3 213.4l-96.1-30.7L1440.3 1135.1 L1440.3 1135.1z M1391.6 1150.9l1.2-0.9l0 0l184.2-133.8l-0.2-0.5l-70.6-217.4l0.7 0.5l0 0L1691.6 933L1877 798.3l-70.8 217.9 l185.4 134.7h-229.2l-70.8 218l-70.8-218H1391.6" class="style0"/></g></g></g></g></g></svg>